<svg width="800" height="200" viewBox="0 0 800 200" fill="none" xmlns="http://www.w3.org/2000/svg">
  <rect width="800" height="200" fill="#1B222D"/>
  
  <rect width="8" height="200" fill="#2E3440"/>
  <rect x="20" y="0" width="1" height="200" fill="#3B4252"/>
  
  <rect x="40" y="30" width="30" height="12" rx="1" fill="#5E81AC" opacity="0.8"/>
  <rect x="80" y="30" width="60" height="12" rx="1" fill="#81A1C1" opacity="0.6"/>
  <text x="150" y="41" fill="#D8DEE9" font-family="monospace" font-size="10">NLP</text>
  
  <rect x="40" y="52" width="100" height="12" rx="1" fill="#88C0D0" opacity="0.7"/>
  <rect x="150" y="52" width="40" height="12" rx="1" fill="#5E81AC"/>
  <text x="200" y="63" fill="#D8DEE9" font-family="monospace" font-size="10">AI/ML</text>
  
  <rect x="40" y="74" width="20" height="12" rx="1" fill="#4C566A"/>
  <rect x="70" y="74" width="80" height="12" rx="1" fill="#81A1C1" opacity="0.5"/>
  <text x="160" y="85" fill="#D8DEE9" font-family="monospace" font-size="10">PYTORCH</text>
  
  <rect x="40" y="96" width="40" height="12" rx="1" fill="#88C0D0"/>
  <text x="90" y="107" fill="#D8DEE9" font-family="monospace" font-size="10" letter-spacing="1">MACHINE LEARNING</text>
  
  <rect x="40" y="118" width="80" height="12" rx="1" fill="#434C5E"/>
  <text x="130" y="129" fill="#D8DEE9" font-family="monospace" font-size="10">DATA</text>

  <text x="770" y="60" text-anchor="end" fill="#ECEFF4" font-family="Courier, monospace" font-size="42" font-weight="bold" letter-spacing="2">HELLO WORLD!</text>
  
  <text x="770" y="150" text-anchor="end" fill="#ECEFF4" font-family="Courier, monospace" font-size="18" font-weight="bold" letter-spacing="1">ANURADHA GOLI</text>
  
  <text x="770" y="175" text-anchor="end" fill="#81A1C1" font-family="Courier, monospace" font-size="13" letter-spacing="0.5">AI/ML • Data Science • Creative Coding</text>
  
  <path d="M0 0H800V200H0V0Z" fill="url(#grid)" fill-opacity="0.03"/>
  <defs>
    <pattern id="grid" width="20" height="20" patternUnits="userSpaceOnUse">
      <path d="M 20 0 L 0 0 0 20" fill="none" stroke="white" stroke-width="0.5"/>
    </pattern>
  </defs>
</svg>